<svg width="50" height="50" viewBox="0 0 50 50" fill="none" xmlns="http://www.w3.org/2000/svg">
<rect width="50" height="50" rx="11" fill="#F2F2F2"/>
<g clip-path="url(#clip0_8_227)">
<path d="M25 5C13.95 5 5 13.95 5 25C5 36.05 13.95 45 25 45C36.05 45 45 36.05 45 25C45 13.95 36.05 5 25 5ZM25 11C28.31 11 31 13.69 31 17C31 20.32 28.31 23 25 23C21.69 23 19 20.32 19 17C19 13.69 21.69 11 25 11ZM25 39.4C19.99 39.4 15.59 36.84 13 32.96C13.05 28.99 21.01 26.8 25 26.8C28.99 26.8 36.94 28.99 37 32.96C34.41 36.84 30.01 39.4 25 39.4Z" fill="black"/>
</g>
<defs>
<clipPath id="clip0_8_227">
<rect width="48" height="48" fill="white" transform="translate(1 1)"/>
</clipPath>
</defs>
</svg>
