<svg width="79" height="50" viewBox="0 0 79 50" fill="none" xmlns="http://www.w3.org/2000/svg">
<g clip-path="url(#clip0_8_231)">
<path d="M47 29H45.41L44.86 28.45C46.82 26.18 48 23.23 48 20C48 12.82 42.18 7 35 7C27.82 7 22 12.82 22 20C22 27.18 27.82 33 35 33C38.23 33 41.18 31.82 43.45 29.87L44 30.42V32L54 41.98L56.98 39L47 29ZM35 29C30.03 29 26 24.97 26 20C26 15.03 30.03 11 35 11C39.97 11 44 15.03 44 20C44 24.97 39.97 29 35 29Z" fill="white"/>
</g>
<defs>
<clipPath id="clip0_8_231">
<rect width="48" height="48" fill="white" transform="translate(16 1)"/>
</clipPath>
</defs>
</svg>
